<svg xmlns="http://www.w3.org/2000/svg" width="64.305" height="65.541" viewBox="0 0 64.305 65.541"><path d="M453.2,651.929c-17.732,0-32.157,14.7-32.157,32.77s14.425,32.77,32.157,32.77a31.849,31.849,0,0,0,7.819-.98A32.665,32.665,0,0,0,485.346,684.7C485.346,666.629,470.928,651.929,453.2,651.929Zm0,61.742c-15.7,0-28.428-12.971-28.428-28.972s12.727-28.972,28.428-28.972,28.428,12.97,28.428,28.972S468.894,713.671,453.195,713.671Z" transform="translate(-421.041 -651.929)" fill="#9bb4d7"/><path d="M449.98,656.3c-13.568,0-24.566,11.274-24.566,25.18s11,25.18,24.566,25.18,24.565-11.272,24.565-25.18S463.547,656.3,449.98,656.3Zm0,46.56a21.386,21.386,0,1,1,20.856-21.38A21.124,21.124,0,0,1,449.98,702.864Z" transform="translate(-417.827 -648.714)" fill="#005baa"/><path d="M446.764,660.679c-9.375,0-16.974,7.875-16.974,17.589s7.6,17.59,16.974,17.59,16.974-7.875,16.974-17.59S456.139,660.679,446.764,660.679Zm0,31.375a13.795,13.795,0,1,1,13.3-13.786A13.552,13.552,0,0,1,446.764,692.054Z" transform="translate(-414.611 -645.498)" fill="#9bb4d7"/><path d="M444.129,665.054a9.964,9.964,0,1,0,9.962,9.964A9.964,9.964,0,0,0,444.129,665.054Zm0,16.132a6.168,6.168,0,1,1,6.168-6.168A6.167,6.167,0,0,1,444.129,681.186Z" transform="translate(-411.975 -642.247)" fill="#9bb4d7"/><ellipse cx="2.372" cy="2.372" rx="2.372" ry="2.372" transform="translate(29.781 30.398)" fill="#9bb4d7"/></svg>